<svg width="13" height="14" viewBox="0 0 13 14" fill="none" xmlns="http://www.w3.org/2000/svg">
<path d="M3.37822 1.87858C3.37822 1.52845 3.37822 1.19321 3.37822 0.850532C3.37794 0.75926 3.39283 0.668605 3.42225 0.582358C3.46888 0.4636 3.55371 0.364299 3.66298 0.300725C3.77224 0.237151 3.89948 0.21307 4.024 0.232249C4.14866 0.263862 4.2601 0.335139 4.34197 0.435676C4.42384 0.536212 4.47187 0.660728 4.47901 0.790968V1.87858H9.41788V1.71471C9.41788 1.40928 9.41788 1.10377 9.41788 0.798334C9.41788 0.650153 9.47586 0.508082 9.57908 0.403302C9.6823 0.298522 9.8223 0.239615 9.96828 0.239615C10.1143 0.239615 10.2542 0.298522 10.3575 0.403302C10.4607 0.508082 10.5187 0.650153 10.5187 0.798334V1.8041C10.5187 1.8935 10.5187 1.93817 10.6287 1.96051C11.2374 2.11341 11.7761 2.4732 12.1553 2.9801C12.5345 3.487 12.7313 4.11044 12.7129 4.74665V5.20852H0.662922C0.586069 4.80281 0.598583 4.38483 0.699561 3.9846C0.80054 3.58437 0.987487 3.21179 1.247 2.89353C1.50651 2.57527 1.83217 2.31923 2.20063 2.14375C2.56909 1.96828 2.97123 1.87774 3.37822 1.87858Z" fill="url(#paint0_linear_3641_5963)"/>
<path d="M0.643471 6.63306H12.7138C12.7138 6.68436 12.7138 6.7283 12.7138 6.77228C12.7138 8.18691 12.7138 9.60157 12.7138 11.0162C12.7228 11.6509 12.5067 12.2683 12.1039 12.7592C11.701 13.2502 11.1374 13.5831 10.5126 13.6989C10.3165 13.7345 10.1175 13.7516 9.91822 13.7502C7.74628 13.7502 5.56944 13.7502 3.38773 13.7502C3.02137 13.7602 2.65682 13.6957 2.31624 13.5605C1.97566 13.4253 1.66619 13.2222 1.4067 12.9637C1.14721 12.7052 0.943108 12.3966 0.806847 12.0567C0.670587 11.7168 0.605013 11.3528 0.614114 10.9869C0.614114 9.58689 0.614114 8.17958 0.614114 6.77228L0.643471 6.63306ZM9.98425 10.4665C9.87511 10.465 9.76799 10.496 9.67653 10.5555C9.58507 10.615 9.51339 10.7004 9.47061 10.8007C9.42783 10.901 9.41588 11.0118 9.43628 11.1189C9.45668 11.226 9.50851 11.3247 9.58517 11.4023C9.66183 11.4799 9.75988 11.5329 9.86683 11.5547C9.97377 11.5766 10.0848 11.5662 10.1858 11.5248C10.2868 11.4834 10.3731 11.4129 10.4339 11.3224C10.4947 11.2318 10.5272 11.1252 10.5272 11.0162C10.5314 10.9435 10.5203 10.8708 10.4946 10.8027C10.4688 10.7346 10.4291 10.6727 10.378 10.6209C10.3268 10.5691 10.2653 10.5286 10.1975 10.502C10.1297 10.4754 10.057 10.4633 9.98425 10.4665ZM3.38041 9.36702C3.4529 9.3691 3.52505 9.35625 3.59235 9.32926C3.65966 9.30228 3.72067 9.26175 3.7716 9.21017C3.82254 9.1586 3.86232 9.09712 3.88843 9.02953C3.91454 8.96194 3.92643 8.88968 3.92338 8.81729C3.92658 8.74459 3.91447 8.672 3.88784 8.60426C3.86122 8.53651 3.82067 8.47508 3.76881 8.42397C3.71694 8.37285 3.65494 8.33316 3.58678 8.30747C3.51861 8.28179 3.4458 8.27073 3.37306 8.2749C3.29939 8.26943 3.2254 8.2799 3.15614 8.30559C3.08689 8.33128 3.024 8.37161 2.97176 8.42379C2.91953 8.47597 2.87918 8.53875 2.85346 8.60793C2.82775 8.67711 2.81726 8.75104 2.82274 8.82463C2.8192 8.89934 2.83183 8.97391 2.85976 9.04331C2.88768 9.1127 2.93026 9.17525 2.98457 9.22673C3.03889 9.2782 3.10367 9.3174 3.17451 9.34161C3.24535 9.36582 3.32058 9.37448 3.39507 9.36702H3.38041ZM5.58169 9.36702C5.65447 9.37022 5.72712 9.3581 5.79493 9.3315C5.86275 9.30491 5.92422 9.2644 5.97539 9.21259C6.02656 9.16079 6.06628 9.09887 6.09199 9.03078C6.1177 8.96268 6.12884 8.88995 6.12466 8.81729C6.12893 8.74495 6.11781 8.67253 6.09204 8.60479C6.06626 8.53705 6.0264 8.47548 5.9751 8.42424C5.9238 8.37299 5.86223 8.33322 5.79442 8.30747C5.7266 8.28172 5.65411 8.27064 5.58169 8.2749C5.50771 8.26956 5.43344 8.28005 5.36385 8.30568C5.29426 8.33132 5.23094 8.37148 5.17815 8.42352C5.12536 8.47556 5.0843 8.53831 5.05772 8.60748C5.03114 8.67665 5.01965 8.75067 5.02402 8.82463C5.02179 8.89835 5.03506 8.97171 5.06296 9.04C5.09086 9.10828 5.13277 9.16998 5.18601 9.22109C5.23925 9.2722 5.30261 9.31155 5.37203 9.33669C5.44144 9.36183 5.51536 9.37218 5.58901 9.36702H5.58169ZM3.38041 10.4665C3.27125 10.4665 3.16457 10.4989 3.07392 10.5596C2.98327 10.6204 2.91274 10.7067 2.87131 10.8076C2.82988 10.9084 2.81942 11.0193 2.84126 11.1262C2.8631 11.233 2.91623 11.3309 2.99393 11.4075C3.07163 11.4841 3.17037 11.5359 3.2776 11.5563C3.38483 11.5766 3.49572 11.5646 3.59614 11.5219C3.69656 11.4792 3.78198 11.4076 3.84156 11.3162C3.90114 11.2249 3.93218 11.1179 3.93073 11.0089C3.93384 10.9368 3.92193 10.8649 3.89575 10.7977C3.86957 10.7305 3.82967 10.6694 3.77861 10.6184C3.72756 10.5674 3.66645 10.5275 3.59916 10.5014C3.53187 10.4752 3.45987 10.4634 3.38773 10.4665H3.38041ZM7.78297 8.26757C7.70989 8.26319 7.63672 8.27449 7.56836 8.30067C7.5 8.32685 7.43804 8.36726 7.38662 8.41931C7.3352 8.47137 7.29551 8.53384 7.27022 8.60247C7.24494 8.6711 7.23461 8.74436 7.23997 8.81729C7.23997 8.96309 7.29795 9.10288 7.40115 9.20597C7.50436 9.30906 7.64434 9.36702 7.79029 9.36702C7.93625 9.36702 8.07623 9.30906 8.17943 9.20597C8.28264 9.10288 8.34061 8.96309 8.34061 8.81729C8.34526 8.74295 8.33366 8.66848 8.3066 8.59907C8.27953 8.52966 8.23765 8.46699 8.18389 8.41538C8.13012 8.36376 8.06576 8.32448 7.99525 8.30022C7.92475 8.27597 7.84981 8.26731 7.77563 8.2749L7.78297 8.26757ZM9.98425 9.35969C10.0934 9.35968 10.2001 9.32728 10.2907 9.26654C10.3814 9.20581 10.4519 9.11949 10.4933 9.01861C10.5348 8.91773 10.5452 8.80683 10.5234 8.69999C10.5016 8.59316 10.4484 8.49518 10.3707 8.4186C10.293 8.34202 10.1943 8.29027 10.087 8.26989C9.9798 8.24952 9.86894 8.26143 9.76852 8.30416C9.6681 8.3469 9.58265 8.4185 9.52308 8.50986C9.4635 8.60122 9.43248 8.70827 9.43393 8.81729C9.42976 8.88995 9.44087 8.96268 9.46658 9.03078C9.49229 9.09887 9.53203 9.16079 9.5832 9.21259C9.63437 9.2644 9.69585 9.30491 9.76366 9.3315C9.83148 9.3581 9.90412 9.37022 9.97691 9.36702L9.98425 9.35969ZM5.58169 11.5586C5.71576 11.5431 5.83943 11.4788 5.9292 11.3781C6.01897 11.2774 6.06857 11.1474 6.06857 11.0125C6.06857 10.8777 6.01897 10.7476 5.9292 10.6469C5.83943 10.5463 5.71576 10.482 5.58169 10.4665C5.50458 10.4575 5.42645 10.4649 5.35243 10.4883C5.27842 10.5117 5.21019 10.5505 5.15222 10.602C5.09426 10.6536 5.04786 10.7169 5.0161 10.7876C4.98433 10.8584 4.96793 10.935 4.96793 11.0125C4.96793 11.0901 4.98433 11.1667 5.0161 11.2375C5.04786 11.3082 5.09426 11.3715 5.15222 11.423C5.21019 11.4746 5.27842 11.5133 5.35243 11.5367C5.42645 11.56 5.50458 11.5675 5.58169 11.5586ZM7.78297 11.5586C7.86008 11.5675 7.93819 11.56 8.0122 11.5367C8.08622 11.5133 8.15445 11.4746 8.21242 11.423C8.27038 11.3715 8.31678 11.3082 8.34854 11.2375C8.3803 11.1667 8.39673 11.0901 8.39673 11.0125C8.39673 10.935 8.3803 10.8584 8.34854 10.7876C8.31678 10.7169 8.27038 10.6536 8.21242 10.602C8.15445 10.5505 8.08622 10.5117 8.0122 10.4883C7.93819 10.4649 7.86008 10.4575 7.78297 10.4665C7.70586 10.4575 7.62773 10.4649 7.55371 10.4883C7.4797 10.5117 7.41147 10.5505 7.3535 10.602C7.29554 10.6536 7.24914 10.7169 7.21738 10.7876C7.18561 10.8584 7.16921 10.935 7.16921 11.0125C7.16921 11.0901 7.18561 11.1667 7.21738 11.2375C7.24914 11.3082 7.29554 11.3715 7.3535 11.423C7.41147 11.4746 7.4797 11.5133 7.55371 11.5367C7.62773 11.56 7.70586 11.5675 7.78297 11.5586Z" fill="url(#paint1_linear_3641_5963)"/>
<defs>
<linearGradient id="paint0_linear_3641_5963" x1="6.6637" y1="0.22583" x2="6.6637" y2="5.20852" gradientUnits="userSpaceOnUse">
<stop stop-color="#6975FA"/>
<stop offset="0.5" stop-color="#9847C3"/>
</linearGradient>
<linearGradient id="paint1_linear_3641_5963" x1="6.6637" y1="6.63306" x2="6.6637" y2="13.7512" gradientUnits="userSpaceOnUse">
<stop stop-color="#6975FA"/>
<stop offset="0.5" stop-color="#9847C3"/>
</linearGradient>
</defs>
</svg>
