<svg width="121" height="109" viewBox="0 0 121 109" fill="none" xmlns="http://www.w3.org/2000/svg">
<path d="M96.0066 98.6626C88.4357 99.5419 82.2737 98.0995 77.5205 94.3355C72.7398 90.3349 69.7724 83.3662 68.6184 73.4294C67.1071 60.417 66.3438 49.7155 66.3285 41.325C66.5222 32.6703 67.8822 25.7985 70.4083 20.7095C73.1435 15.3565 77.3448 11.2718 83.0123 8.45557C88.8888 5.37526 96.7268 2.66661 106.526 0.329609L108.999 21.6227C103.904 23.1735 99.8737 24.6008 96.9079 25.9043C94.1788 27.1804 92.2006 28.7289 90.9734 30.5499C89.7462 32.3709 89.0609 34.7284 88.9174 37.6225C89.0106 40.489 89.3182 44.1699 89.8402 48.6651C97.6477 47.7584 103.901 48.9504 108.599 52.2412C113.534 55.5046 116.537 61.7498 117.608 70.9768C118.57 79.2574 117.051 85.7881 113.05 90.5688C109.259 95.0854 103.577 97.7833 96.0066 98.6626Z" fill="white"/>
<path d="M35.2605 105.663C27.6896 106.542 21.5276 105.1 16.7744 101.336C11.9937 97.3349 9.02632 90.3662 7.87227 80.4294C6.36102 67.417 5.59771 56.7155 5.58236 48.325C5.77613 39.6703 7.13607 32.7985 9.66219 27.7095C12.3974 22.3565 16.5987 18.2718 22.2662 15.4556C28.1428 12.3753 35.9807 9.66661 45.7801 7.32961L48.2531 28.6227C43.158 30.1735 39.1276 31.6008 36.1618 32.9043C33.4327 34.1804 31.4545 35.7289 30.2273 37.5499C29.0001 39.3709 28.3148 41.7284 28.1713 44.6225C28.2645 47.489 28.5721 51.1699 29.0941 55.6651C36.9016 54.7584 43.1544 55.9504 47.8527 59.2412C52.7875 62.5046 55.7908 68.7498 56.8624 77.9768C57.8241 86.2574 56.3046 92.7881 52.304 97.5688C48.5125 102.085 42.8314 104.783 35.2605 105.663Z" fill="white"/>
</svg>
