<svg width="19" height="19" viewBox="0 0 19 19" fill="none" xmlns="http://www.w3.org/2000/svg">
<g clip-path="url(#clip0_3605_8063)">
<path d="M10.6596 18.9999H6.73438V6.33987H10.4986V8.02449C10.7705 7.70777 11.0002 7.38795 11.282 7.12206C11.975 6.46755 12.8216 6.13038 13.763 6.04113C14.5727 5.95693 15.3911 6.0351 16.1703 6.27107C17.4777 6.68014 18.2493 7.59993 18.6333 8.88415C18.8885 9.73576 18.9801 10.6128 18.9857 11.4948C19.0024 13.9461 18.9962 16.398 18.9981 18.8493C18.9981 18.8797 18.9931 18.9113 18.9882 18.9596H15.0574V18.6882C15.0574 16.5926 15.0623 14.4965 15.0487 12.4009C15.0456 11.9604 15.0041 11.5209 14.9248 11.0875C14.6858 9.78596 13.841 9.33351 12.6185 9.48412C11.5205 9.61924 10.9197 10.2663 10.7525 11.46C10.6927 11.8963 10.6623 12.3361 10.6615 12.7765C10.6522 14.7561 10.6571 16.7358 10.6571 18.7161L10.6596 18.9999Z" fill="url(#paint0_linear_3605_8063)"/>
<path d="M4.23787 19.0009H0.328125V6.33154H4.23787V19.0009Z" fill="url(#paint1_linear_3605_8063)"/>
<path d="M4.55755 2.27483C4.56498 3.53488 3.54311 4.57925 2.29705 4.58668C1.05098 4.59412 0.000619316 3.5479 0 2.2835C0.00865385 1.68511 0.251963 1.11409 0.677453 0.69359C1.10294 0.273086 1.67653 0.0367872 2.27451 0.0356487C2.8725 0.0345101 3.44697 0.268624 3.87406 0.687505C4.30115 1.10639 4.54662 1.67647 4.55755 2.27483Z" fill="url(#paint2_linear_3605_8063)"/>
</g>
<defs>
<linearGradient id="paint0_linear_3605_8063" x1="12.8662" y1="6.0083" x2="12.8662" y2="18.9999" gradientUnits="userSpaceOnUse">
<stop stop-color="#6975FA"/>
<stop offset="0.418269" stop-color="#9847C3"/>
<stop offset="1" stop-color="#E21C6A"/>
</linearGradient>
<linearGradient id="paint1_linear_3605_8063" x1="2.283" y1="6.33154" x2="2.283" y2="19.0009" gradientUnits="userSpaceOnUse">
<stop stop-color="#6975FA"/>
<stop offset="0.418269" stop-color="#9847C3"/>
<stop offset="1" stop-color="#E21C6A"/>
</linearGradient>
<linearGradient id="paint2_linear_3605_8063" x1="2.2788" y1="0.0356445" x2="2.2788" y2="4.58672" gradientUnits="userSpaceOnUse">
<stop stop-color="#6975FA"/>
<stop offset="0.418269" stop-color="#9847C3"/>
<stop offset="1" stop-color="#E21C6A"/>
</linearGradient>
<clipPath id="clip0_3605_8063">
<rect width="19" height="19" fill="white"/>
</clipPath>
</defs>
</svg>
