<svg width="23" height="23" viewBox="0 0 23 23" fill="none" xmlns="http://www.w3.org/2000/svg">
<path d="M11.5 5.78312C14.6227 5.78312 17.2001 8.36057 17.2001 11.4833C17.2001 14.6555 14.6227 17.1834 11.5 17.1834C8.32775 17.1834 5.79987 14.6555 5.79987 11.4833C5.79987 8.36057 8.32775 5.78312 11.5 5.78312ZM11.5 15.2007C13.5322 15.2007 15.1679 13.565 15.1679 11.4833C15.1679 9.45103 13.5322 7.81534 11.5 7.81534C9.41821 7.81534 7.78252 9.45103 7.78252 11.4833C7.78252 13.565 9.46778 15.2007 11.5 15.2007ZM18.7367 5.58485C18.7367 6.32835 18.1419 6.92315 17.3984 6.92315C16.6549 6.92315 16.0601 6.32835 16.0601 5.58485C16.0601 4.84136 16.6549 4.24656 17.3984 4.24656C18.1419 4.24656 18.7367 4.84136 18.7367 5.58485ZM22.5037 6.92315C22.6029 8.7571 22.6029 14.259 22.5037 16.0929C22.4046 17.8773 22.0081 19.4139 20.7193 20.7522C19.4306 22.0409 17.8445 22.4374 16.0601 22.5366C14.2262 22.6357 8.72428 22.6357 6.89033 22.5366C5.10594 22.4374 3.56938 22.0409 2.23109 20.7522C0.942359 19.4139 0.545828 17.8773 0.446695 16.0929C0.347563 14.259 0.347563 8.7571 0.446695 6.92315C0.545828 5.13876 0.942359 3.55263 2.23109 2.26391C3.56938 0.975179 5.10594 0.578648 6.89033 0.479515C8.72428 0.380383 14.2262 0.380383 16.0601 0.479515C17.8445 0.578648 19.4306 0.975179 20.7193 2.26391C22.0081 3.55263 22.4046 5.13876 22.5037 6.92315ZM20.1246 18.026C20.7193 16.5886 20.5706 13.1189 20.5706 11.4833C20.5706 9.89713 20.7193 6.42748 20.1246 4.94049C19.728 3.99873 18.9845 3.20567 18.0428 2.8587C16.5558 2.26391 13.0861 2.4126 11.5 2.4126C9.86431 2.4126 6.39466 2.26391 4.95724 2.8587C3.96591 3.25523 3.22241 3.99873 2.82588 4.94049C2.23109 6.42748 2.37978 9.89713 2.37978 11.4833C2.37978 13.1189 2.23109 16.5886 2.82588 18.026C3.22241 19.0173 3.96591 19.7608 4.95724 20.1574C6.39466 20.7522 9.86431 20.6035 11.5 20.6035C13.0861 20.6035 16.5558 20.7522 18.0428 20.1574C18.9845 19.7608 19.7776 19.0173 20.1246 18.026Z" fill="white"/>
</svg>
