<svg width="14" height="16" viewBox="0 0 14 16" fill="none" xmlns="http://www.w3.org/2000/svg">
<path d="M3.70473 2.55406C3.70473 2.17544 3.70473 1.81293 3.70473 1.44237C3.70444 1.34368 3.72053 1.24565 3.75235 1.15238C3.80277 1.02396 3.89451 0.91658 4.01266 0.847834C4.13082 0.779088 4.26841 0.753047 4.40305 0.773787C4.53786 0.807972 4.65836 0.885048 4.7469 0.993764C4.83543 1.10248 4.88737 1.23713 4.89508 1.37796V2.55406H10.2358V2.37686C10.2358 2.04658 10.2358 1.71621 10.2358 1.38593C10.2358 1.22569 10.2985 1.07206 10.4101 0.958757C10.5217 0.845452 10.6731 0.781752 10.831 0.781752C10.9888 0.781752 11.1402 0.845452 11.2518 0.958757C11.3634 1.07206 11.4261 1.22569 11.4261 1.38593V2.47352C11.4261 2.57019 11.4261 2.6185 11.5452 2.64266C12.2033 2.80799 12.7859 3.19706 13.1959 3.74521C13.606 4.29335 13.8188 4.96751 13.7989 5.65548V6.15493H0.768523C0.685417 5.71621 0.698949 5.26422 0.808143 4.83142C0.917338 4.39863 1.11949 3.99575 1.40012 3.65159C1.68075 3.30743 2.0329 3.03056 2.43134 2.84081C2.82977 2.65106 3.26463 2.55315 3.70473 2.55406Z" fill="#505050"/>
<path d="M0.74749 7.69531H13.7999C13.7999 7.75079 13.7999 7.7983 13.7999 7.84586C13.7999 9.37559 13.7999 10.9053 13.7999 12.4351C13.8096 13.1214 13.5759 13.789 13.1403 14.3199C12.7047 14.8508 12.0952 15.2108 11.4195 15.336C11.2075 15.3745 10.9923 15.393 10.7768 15.3915C8.42818 15.3915 6.07424 15.3915 3.71502 15.3915C3.31886 15.4024 2.92465 15.3326 2.55636 15.1864C2.18807 15.0401 1.85342 14.8206 1.57281 14.541C1.29221 14.2614 1.0715 13.9277 0.924158 13.5602C0.776812 13.1927 0.705902 12.7991 0.715744 12.4033C0.715744 10.8895 0.715744 9.36766 0.715744 7.84586L0.74749 7.69531ZM10.8482 11.8406C10.7302 11.839 10.6144 11.8725 10.5155 11.9369C10.4166 12.0012 10.3391 12.0935 10.2928 12.202C10.2465 12.3105 10.2336 12.4303 10.2557 12.5461C10.2777 12.662 10.3338 12.7686 10.4167 12.8526C10.4996 12.9365 10.6056 12.9938 10.7212 13.0174C10.8369 13.041 10.957 13.0298 11.0662 12.985C11.1754 12.9403 11.2688 12.8641 11.3345 12.7662C11.4003 12.6682 11.4354 12.553 11.4354 12.4351C11.4399 12.3565 11.4279 12.2779 11.4001 12.2042C11.3723 12.1306 11.3293 12.0636 11.274 12.0076C11.2186 11.9516 11.1522 11.9078 11.0788 11.879C11.0055 11.8503 10.9269 11.8372 10.8482 11.8406ZM3.7071 10.6517C3.78549 10.654 3.86351 10.6401 3.93629 10.6109C4.00907 10.5817 4.07504 10.5379 4.13013 10.4821C4.18521 10.4263 4.22822 10.3598 4.25645 10.2868C4.28469 10.2137 4.29755 10.1355 4.29425 10.0573C4.29771 9.97864 4.28461 9.90014 4.25582 9.82689C4.22703 9.75363 4.18318 9.6872 4.1271 9.63193C4.07102 9.57666 4.00397 9.53373 3.93026 9.50596C3.85655 9.47818 3.77781 9.46623 3.69916 9.47074C3.61949 9.46482 3.53948 9.47615 3.46459 9.50393C3.3897 9.53171 3.3217 9.57531 3.26521 9.63174C3.20872 9.68816 3.1651 9.75605 3.13729 9.83086C3.10948 9.90566 3.09814 9.98561 3.10406 10.0652C3.10024 10.146 3.11389 10.2266 3.14409 10.3017C3.17429 10.3767 3.22033 10.4443 3.27906 10.5C3.3378 10.5557 3.40784 10.5981 3.48445 10.6242C3.56105 10.6504 3.6424 10.6598 3.72296 10.6517H3.7071ZM6.08748 10.6517C6.16618 10.6552 6.24474 10.6421 6.31807 10.6133C6.39141 10.5845 6.45788 10.5407 6.51322 10.4847C6.56855 10.4287 6.6115 10.3617 6.6393 10.2881C6.6671 10.2145 6.67914 10.1358 6.67463 10.0573C6.67925 9.97903 6.66722 9.90072 6.63935 9.82747C6.61147 9.75422 6.56837 9.68763 6.5129 9.63222C6.45743 9.57681 6.39084 9.5338 6.31751 9.50596C6.24418 9.47811 6.16579 9.46613 6.08748 9.47074C6.00748 9.46496 5.92717 9.4763 5.85192 9.50402C5.77667 9.53174 5.7082 9.57517 5.65111 9.63145C5.59402 9.68772 5.54963 9.75557 5.52088 9.83037C5.49214 9.90517 5.47971 9.98521 5.48444 10.0652C5.48203 10.1449 5.49638 10.2242 5.52655 10.2981C5.55672 10.3719 5.60204 10.4386 5.65961 10.4939C5.71717 10.5492 5.7857 10.5917 5.86076 10.6189C5.93582 10.6461 6.01575 10.6573 6.0954 10.6517H6.08748ZM3.7071 11.8406C3.58907 11.8406 3.4737 11.8757 3.37568 11.9413C3.27765 12.007 3.20138 12.1004 3.15658 12.2094C3.11179 12.3185 3.10048 12.4385 3.12409 12.554C3.1477 12.6695 3.20516 12.7754 3.28918 12.8582C3.3732 12.941 3.47998 12.997 3.59593 13.0191C3.71189 13.0411 3.83179 13.0281 3.94038 12.9819C4.04897 12.9357 4.14135 12.8583 4.20577 12.7595C4.2702 12.6607 4.30377 12.545 4.30219 12.4271C4.30557 12.3492 4.29269 12.2715 4.26437 12.1988C4.23606 12.1261 4.19292 12.0601 4.13771 12.0049C4.0825 11.9498 4.01641 11.9066 3.94365 11.8784C3.87089 11.8501 3.79302 11.8373 3.71502 11.8406H3.7071ZM8.46785 9.46281C8.38883 9.45807 8.3097 9.47029 8.23578 9.4986C8.16186 9.52692 8.09486 9.57061 8.03926 9.6269C7.98366 9.68319 7.94074 9.75074 7.91339 9.82495C7.88604 9.89917 7.87488 9.97839 7.88068 10.0573C7.88068 10.2149 7.94337 10.3661 8.05497 10.4776C8.16657 10.589 8.31794 10.6517 8.47577 10.6517C8.6336 10.6517 8.78497 10.589 8.89657 10.4776C9.00817 10.3661 9.07087 10.2149 9.07087 10.0573C9.07589 9.97687 9.06335 9.89633 9.03408 9.82128C9.00482 9.74622 8.95953 9.67846 8.90139 9.62264C8.84325 9.56683 8.77365 9.52435 8.69741 9.49812C8.62117 9.47189 8.54013 9.46253 8.45991 9.47074L8.46785 9.46281ZM10.8482 10.6438C10.9663 10.6438 11.0816 10.6087 11.1797 10.5431C11.2777 10.4774 11.3539 10.384 11.3987 10.275C11.4435 10.1659 11.4549 10.0459 11.4312 9.93041C11.4076 9.81489 11.3501 9.70894 11.2661 9.62613C11.1821 9.54331 11.0753 9.48736 10.9594 9.46532C10.8434 9.44329 10.7235 9.45617 10.6149 9.50238C10.5064 9.54859 10.414 9.62602 10.3495 9.72481C10.2851 9.82361 10.2516 9.93936 10.2531 10.0573C10.2486 10.1358 10.2606 10.2145 10.2884 10.2881C10.3162 10.3617 10.3592 10.4287 10.4145 10.4847C10.4699 10.5407 10.5364 10.5845 10.6097 10.6133C10.683 10.6421 10.7616 10.6552 10.8403 10.6517L10.8482 10.6438ZM6.08748 13.0216C6.23245 13.0048 6.36619 12.9353 6.46326 12.8264C6.56033 12.7176 6.61397 12.5769 6.61397 12.4311C6.61397 12.2853 6.56033 12.1446 6.46326 12.0358C6.36619 11.9269 6.23245 11.8574 6.08748 11.8406C6.0041 11.831 5.91961 11.839 5.83957 11.8642C5.75953 11.8895 5.68575 11.9314 5.62307 11.9872C5.56039 12.043 5.51022 12.1114 5.47587 12.1879C5.44152 12.2644 5.42378 12.3473 5.42378 12.4311C5.42378 12.515 5.44152 12.5978 5.47587 12.6743C5.51022 12.7509 5.56039 12.8192 5.62307 12.875C5.68575 12.9308 5.75953 12.9726 5.83957 12.9979C5.91961 13.0232 6.0041 13.0313 6.08748 13.0216ZM8.46785 13.0216C8.55123 13.0313 8.6357 13.0232 8.71574 12.9979C8.79577 12.9726 8.86956 12.9308 8.93224 12.875C8.99492 12.8192 9.04509 12.7509 9.07944 12.6743C9.11379 12.5978 9.13155 12.515 9.13155 12.4311C9.13155 12.3473 9.11379 12.2644 9.07944 12.1879C9.04509 12.1114 8.99492 12.043 8.93224 11.9872C8.86956 11.9314 8.79577 11.8895 8.71574 11.8642C8.6357 11.839 8.55123 11.831 8.46785 11.8406C8.38447 11.831 8.29998 11.839 8.21995 11.8642C8.13991 11.8895 8.06613 11.9314 8.00344 11.9872C7.94076 12.043 7.89059 12.1114 7.85625 12.1879C7.8219 12.2644 7.80416 12.3473 7.80416 12.4311C7.80416 12.515 7.8219 12.5978 7.85625 12.6743C7.89059 12.7509 7.94076 12.8192 8.00344 12.875C8.06613 12.9308 8.13991 12.9726 8.21995 12.9979C8.29998 13.0232 8.38447 13.0313 8.46785 13.0216Z" fill="#505050"/>
</svg>
