<svg width="82" height="18" viewBox="0 0 82 18" fill="none" xmlns="http://www.w3.org/2000/svg">
<path d="M9.85202 0.166181L12.5745 5.60726C12.5968 5.65118 12.6294 5.68922 12.6696 5.71822C12.7099 5.74722 12.7565 5.76634 12.8057 5.774L18.8847 6.64447C18.9628 6.65941 19.0321 6.70335 19.0784 6.76722C19.1246 6.83109 19.1443 6.91003 19.1333 6.98776C19.1231 7.05375 19.0918 7.11477 19.0438 7.16185L14.658 11.3965C14.6222 11.4305 14.5953 11.4727 14.5797 11.5192C14.5641 11.5658 14.5602 11.6154 14.5685 11.6638L15.6102 17.6443C15.6233 17.7232 15.6047 17.804 15.5582 17.8695C15.5118 17.935 15.4412 17.98 15.3616 17.995C15.2944 18.0055 15.2255 17.9943 15.1652 17.9631L9.72024 15.1408C9.67619 15.1178 9.62711 15.1058 9.57728 15.1058C9.52745 15.1058 9.47837 15.1178 9.43432 15.1408L3.98937 17.9631C3.93875 17.9897 3.88157 18.0018 3.82434 17.9979C3.76711 17.994 3.71215 17.9743 3.66574 17.941C3.61932 17.9078 3.58332 17.8623 3.56185 17.8099C3.54038 17.7574 3.53431 17.7 3.54432 17.6443L4.58359 11.6712C4.59236 11.623 4.58901 11.5734 4.57384 11.5268C4.55867 11.4802 4.53214 11.438 4.49657 11.4039L0.0908833 7.16921C0.0620923 7.14116 0.0392364 7.10774 0.0236351 7.07091C0.00803386 7.03408 0 6.99457 0 6.95466C0 6.91474 0.00803386 6.87521 0.0236351 6.83838C0.0392364 6.80155 0.0620923 6.76815 0.0908833 6.7401C0.138612 6.69278 0.200493 6.66184 0.267407 6.65183L6.35382 5.77889C6.40306 5.77228 6.4499 5.75385 6.49021 5.72521C6.53053 5.69656 6.56309 5.65858 6.58504 5.61461L9.30752 0.173529C9.32548 0.137799 9.35044 0.105936 9.38096 0.0797818C9.41148 0.0536279 9.44696 0.0337017 9.48534 0.0211597C9.52372 0.00861765 9.56425 0.00371246 9.60457 0.00671741C9.64489 0.00972236 9.68421 0.0205817 9.72024 0.03867C9.77653 0.0666374 9.82259 0.111209 9.85202 0.166181Z" fill="#F3CC30"/>
<path d="M9.57442 1.42407L7.1503 6.05842C7.08719 6.17779 6.99471 6.27964 6.88133 6.35461C6.76796 6.42958 6.63732 6.47528 6.50138 6.48753L1.23047 6.96322L6.79476 7.20843C6.96714 7.21643 7.13762 7.17014 7.28155 7.07625C7.42547 6.98235 7.53537 6.84572 7.59534 6.68614L9.57442 1.42407Z" fill="#F7DB5E"/>
<path d="M3.6647 16.9578L3.54287 17.6444C3.53393 17.7002 3.54079 17.7573 3.56269 17.8095C3.58459 17.8617 3.62067 17.9068 3.66697 17.9401C3.71326 17.9733 3.76796 17.9933 3.82504 17.9978C3.88211 18.0023 3.93933 17.9912 3.9904 17.9656L9.43784 15.1409C9.48189 15.1179 9.53097 15.1059 9.5808 15.1059C9.63063 15.1059 9.67971 15.1179 9.72376 15.1409L15.1563 17.9656C15.2286 18.0021 15.3126 18.0093 15.3903 17.9854C15.4679 17.9616 15.5329 17.9087 15.5715 17.8381C15.6023 17.7784 15.6128 17.7105 15.6013 17.6444L14.572 11.6712C14.5633 11.6225 14.567 11.5724 14.5826 11.5253C14.5982 11.4783 14.6253 11.4358 14.6615 11.4015L19.0647 7.16684C19.0935 7.13878 19.1164 7.10537 19.132 7.06854C19.1476 7.03171 19.1556 6.9922 19.1556 6.95228C19.1556 6.91237 19.1476 6.87286 19.132 6.83603C19.1164 6.7992 19.0935 6.76578 19.0647 6.73773C19.017 6.69041 18.9551 6.65947 18.8882 6.64946L16.8494 6.35767C13.5576 12.1911 8.50797 15.2635 3.6647 16.9578Z" fill="#EDBD31"/>
<path d="M30.6123 0.165814L33.3348 5.60689C33.3568 5.65106 33.3893 5.6893 33.4296 5.71835C33.4698 5.74739 33.5167 5.76636 33.566 5.77363L39.6524 6.6441C39.7331 6.65564 39.8059 6.69824 39.8548 6.76257C39.9038 6.82691 39.9248 6.90776 39.9135 6.98739C39.9033 7.05339 39.872 7.11441 39.824 7.16148L35.4183 11.3962C35.3827 11.4303 35.3562 11.4725 35.341 11.5191C35.3258 11.5657 35.3225 11.6153 35.3313 11.6634L36.3705 17.644C36.3805 17.6997 36.3745 17.757 36.353 17.8095C36.3315 17.862 36.2955 17.9074 36.2491 17.9406C36.2027 17.9739 36.1478 17.9936 36.0905 17.9975C36.0333 18.0014 35.9761 17.9893 35.9255 17.9627L30.4805 15.1404C30.4365 15.1175 30.3874 15.1054 30.3376 15.1054C30.2877 15.1054 30.2387 15.1175 30.1946 15.1404L24.7497 17.9627C24.6989 17.989 24.6417 18.0008 24.5845 17.9968C24.5273 17.9928 24.4723 17.9731 24.4258 17.94C24.3793 17.9069 24.3431 17.8616 24.3213 17.8093C24.2994 17.757 24.2928 17.6998 24.3021 17.644L25.3489 11.6708C25.3576 11.6226 25.3543 11.5731 25.3391 11.5265C25.3239 11.4799 25.2974 11.4376 25.2618 11.4035L20.8487 7.16148C20.8199 7.13343 20.797 7.10003 20.7814 7.0632C20.7658 7.02637 20.7578 6.98684 20.7578 6.94693C20.7578 6.90701 20.7658 6.8675 20.7814 6.83067C20.797 6.79384 20.8199 6.76042 20.8487 6.73237C20.8964 6.68505 20.9583 6.65411 21.0252 6.6441L27.1116 5.77118C27.1609 5.76477 27.2079 5.74642 27.2482 5.71775C27.2886 5.68908 27.3211 5.65099 27.3429 5.60689L30.0728 0.165814C30.099 0.115923 30.1386 0.0740862 30.1873 0.0448879C30.2359 0.0156897 30.2918 0.000244141 30.3488 0.000244141C30.4057 0.000244141 30.4616 0.0156897 30.5103 0.0448879C30.559 0.0740862 30.5985 0.115923 30.6247 0.165814H30.6123Z" fill="#F3CC30"/>
<path d="M30.3376 1.42407L27.9109 6.05842C27.848 6.17793 27.7556 6.2799 27.6422 6.3549C27.5288 6.42989 27.398 6.4755 27.262 6.48753L21.9961 6.96322L27.5604 7.20843C27.7328 7.21643 27.9032 7.17014 28.0472 7.07625C28.1911 6.98235 28.301 6.84572 28.361 6.68614L30.3376 1.42407Z" fill="#F7DB5E"/>
<path d="M24.4206 16.9578L24.3012 17.6444C24.2916 17.7001 24.298 17.7573 24.3195 17.8096C24.341 17.8619 24.3769 17.9073 24.4231 17.9406C24.4693 17.974 24.524 17.994 24.5811 17.9984C24.6382 18.0028 24.6954 17.9915 24.7463 17.9656L30.1912 15.1409C30.2353 15.1179 30.2843 15.1059 30.3342 15.1059C30.384 15.1059 30.4331 15.1179 30.4771 15.1409L35.9221 17.9656C35.9945 18.0021 36.0785 18.0093 36.1561 17.9854C36.2337 17.9616 36.2987 17.9087 36.3373 17.8381C36.3694 17.7788 36.3799 17.7104 36.3671 17.6444L35.3279 11.6712C35.3198 11.6225 35.3238 11.5726 35.3394 11.5256C35.3549 11.4787 35.3817 11.4361 35.4174 11.4015L39.8231 7.16684C39.88 7.10954 39.9119 7.03251 39.9119 6.95228C39.9119 6.87205 39.88 6.79502 39.8231 6.73773C39.7753 6.69041 39.7134 6.65947 39.6465 6.64946L37.6078 6.35767C34.3159 12.1911 29.2638 15.2635 24.4206 16.9578Z" fill="#EDBD31"/>
<path d="M51.3705 0.166093L54.1054 5.60717C54.1277 5.65109 54.1604 5.68913 54.2006 5.71813C54.2408 5.74713 54.2874 5.76625 54.3366 5.77391L60.4056 6.64438C60.4863 6.65592 60.5591 6.69851 60.608 6.76285C60.657 6.82719 60.6781 6.90803 60.6667 6.98767C60.6576 7.054 60.6261 7.11534 60.5772 7.16176L56.179 11.3964C56.1426 11.4301 56.1153 11.4721 56.0997 11.5188C56.0841 11.5655 56.0806 11.6153 56.0895 11.6637L57.1287 17.6442C57.1387 17.6999 57.1327 17.7573 57.1112 17.8098C57.0897 17.8622 57.0537 17.9077 57.0073 17.9409C56.9609 17.9742 56.9059 17.9939 56.8487 17.9978C56.7915 18.0017 56.7343 17.9896 56.6837 17.963L51.2387 15.1407C51.1947 15.1177 51.1456 15.1057 51.0958 15.1057C51.0459 15.1057 50.9969 15.1177 50.9528 15.1407L45.5079 17.963C45.4722 17.9817 45.433 17.9933 45.3928 17.997C45.3525 18.0008 45.3119 17.9966 45.2733 17.9847C45.2347 17.9729 45.1988 17.9536 45.1678 17.928C45.1368 17.9023 45.1113 17.8709 45.0927 17.8355C45.0605 17.7771 45.05 17.7095 45.0628 17.6442L46.1021 11.6711C46.1103 11.6227 46.1065 11.5731 46.0909 11.5265C46.0753 11.4799 46.0484 11.4378 46.0126 11.4038L41.6094 7.16176C41.5518 7.10477 41.5195 7.02763 41.5195 6.9472C41.5195 6.86678 41.5518 6.78963 41.6094 6.73265C41.6571 6.68533 41.719 6.65439 41.7859 6.64438L47.8748 5.77145C47.924 5.76484 47.9709 5.7464 48.0112 5.71776C48.0515 5.68911 48.0841 5.65114 48.106 5.60717L50.8409 0.166093C50.8667 0.116112 50.9061 0.0741358 50.9545 0.0448234C51.003 0.015511 51.0588 0 51.1157 0C51.1725 0 51.2283 0.015511 51.2768 0.0448234C51.3253 0.0741358 51.3646 0.116112 51.3904 0.166093H51.3705Z" fill="#F3CC30"/>
<path d="M51.0954 1.42456L48.6688 6.05891C48.6064 6.17838 48.5145 6.28036 48.4015 6.35539C48.2884 6.43041 48.158 6.47603 48.0223 6.48802L42.7539 6.96371L48.3207 7.20892C48.4928 7.21716 48.6631 7.17094 48.8067 7.07698C48.9502 6.98301 49.0596 6.84624 49.1188 6.68663L51.0954 1.42456Z" fill="#F7DB5E"/>
<path d="M45.1785 16.9578L45.0591 17.6444C45.0454 17.7234 45.0638 17.8045 45.1103 17.8701C45.1569 17.9358 45.2278 17.9807 45.3078 17.995C45.3748 18.0062 45.4436 17.9958 45.5042 17.9656L50.9566 15.1409C51.0006 15.1179 51.0497 15.1059 51.0996 15.1059C51.1494 15.1059 51.1985 15.1179 51.2425 15.1409L56.675 17.9656C56.7473 18.0028 56.8315 18.0103 56.9093 17.9864C56.9871 17.9625 57.0522 17.9092 57.0902 17.8381C57.1219 17.7787 57.1332 17.7107 57.1226 17.6444L56.0883 11.6712C56.0797 11.6227 56.0832 11.5728 56.0983 11.5259C56.1135 11.4789 56.1399 11.4363 56.1753 11.4015L60.581 7.16684C60.6098 7.13878 60.6326 7.10537 60.6482 7.06854C60.6638 7.03171 60.6719 6.9922 60.6719 6.95228C60.6719 6.91237 60.6638 6.87286 60.6482 6.83603C60.6326 6.7992 60.6098 6.76578 60.581 6.73773C60.5333 6.69041 60.4714 6.65947 60.4045 6.64946L58.3657 6.35767C55.0739 12.1911 50.0218 15.2635 45.1785 16.9578Z" fill="#EDBD31"/>
<path d="M72.1272 0.166425L74.8621 5.6075C74.8845 5.65143 74.9171 5.68946 74.9573 5.71846C74.9975 5.74746 75.0442 5.76658 75.0934 5.77424L81.1823 6.64471C81.2627 6.65685 81.335 6.6996 81.3839 6.76378C81.4327 6.82797 81.454 6.90847 81.4433 6.988C81.4332 7.054 81.4018 7.11502 81.3538 7.16209L76.9481 11.3968C76.9123 11.4308 76.8854 11.4729 76.8698 11.5195C76.8542 11.566 76.8504 11.6157 76.8586 11.664L77.9004 17.6446C77.9135 17.7234 77.8948 17.8043 77.8484 17.8698C77.8019 17.9353 77.7314 17.9803 77.6517 17.9952C77.5845 18.0057 77.5156 17.9946 77.4553 17.9633L72.0104 15.141C71.9663 15.1181 71.9172 15.106 71.8674 15.106C71.8176 15.106 71.7685 15.1181 71.7245 15.141L66.2795 17.9633C66.2289 17.99 66.1717 18.002 66.1145 17.9981C66.0572 17.9942 66.0023 17.9745 65.9559 17.9413C65.9094 17.908 65.8735 17.8626 65.852 17.8101C65.8305 17.7576 65.8244 17.7003 65.8345 17.6446L66.8687 11.6714C66.8775 11.6232 66.8742 11.5737 66.859 11.5271C66.8438 11.4805 66.8173 11.4382 66.7817 11.4041L62.376 7.16945C62.3472 7.1414 62.3244 7.10799 62.3088 7.07116C62.2932 7.03433 62.2852 6.99481 62.2852 6.9549C62.2852 6.91499 62.2932 6.87546 62.3088 6.83863C62.3244 6.8018 62.3472 6.7684 62.376 6.74035C62.4238 6.69302 62.4857 6.66208 62.5526 6.65208L68.639 5.77914C68.6882 5.77253 68.7351 5.7541 68.7754 5.72545C68.8157 5.69681 68.8482 5.65882 68.8702 5.61485L71.6051 0.173773C71.6231 0.138043 71.648 0.10618 71.6786 0.0800259C71.7091 0.053872 71.7446 0.0339458 71.7829 0.0214038C71.8213 0.00886179 71.8618 0.0039566 71.9022 0.00696155C71.9425 0.0099665 71.9818 0.0208258 72.0178 0.0389141C72.0658 0.0703106 72.1038 0.114542 72.1272 0.166425Z" fill="#F3CC30"/>
<path d="M71.8415 1.42456L69.4173 6.05891C69.3542 6.17828 69.2618 6.28013 69.1484 6.3551C69.035 6.43007 68.9044 6.47577 68.7684 6.48802L63.5 6.96371L69.0668 7.20892C69.2389 7.21716 69.4092 7.17094 69.5527 7.07698C69.6963 6.98301 69.8057 6.84624 69.8649 6.68663L71.8415 1.42456Z" fill="#F7DB5E"/>
<path d="M65.9388 16.9581L65.817 17.6446C65.8032 17.7236 65.8216 17.8047 65.8681 17.8704C65.9147 17.9361 65.9857 17.9809 66.0656 17.9953C66.1326 18.0066 66.2014 17.9963 66.262 17.9659L71.707 15.1411C71.751 15.1181 71.8001 15.1061 71.8499 15.1061C71.8997 15.1061 71.9488 15.1181 71.9929 15.1411L77.4378 17.9659C77.5102 18.0024 77.5942 18.0095 77.6718 17.9857C77.7494 17.9618 77.8145 17.909 77.853 17.8384C77.8838 17.7786 77.8943 17.7107 77.8829 17.6446L76.8461 11.6715C76.8375 11.6229 76.841 11.5731 76.8561 11.5261C76.8713 11.4792 76.8977 11.4365 76.9331 11.4018L81.3388 7.16708C81.3676 7.13903 81.3904 7.10561 81.406 7.06878C81.4216 7.03195 81.4297 6.99244 81.4297 6.95253C81.4297 6.91261 81.4216 6.8731 81.406 6.83627C81.3904 6.79944 81.3676 6.76603 81.3388 6.73797C81.2911 6.69065 81.2292 6.65971 81.1623 6.6497L79.1235 6.35791C75.8317 12.1913 70.7821 15.2637 65.9388 16.9581Z" fill="#EDBD31"/>
</svg>
