<svg width="23" height="24" viewBox="0 0 23 24" fill="none" xmlns="http://www.w3.org/2000/svg">
<path d="M19.1743 1.78435C20.5787 0.958246 22.3549 2.1561 22.107 3.80831L19.67 19.7935C19.5461 20.4131 19.2156 20.9087 18.6787 21.2392C18.3482 21.4044 18.0178 21.487 17.6874 21.487C17.4395 21.487 17.1917 21.4457 16.9439 21.3218L12.3177 19.4217L10.5002 21.8587C9.38498 23.387 6.94797 22.6022 6.94797 20.6609V17.1912L2.19785 15.2499C0.669557 14.6303 0.545641 12.5237 1.99133 11.6976L19.1743 1.78435ZM8.93062 20.6609L10.4176 18.6369L8.93062 18.0173V20.6609ZM17.6874 19.5043L20.1657 3.47787L2.98266 13.3911L7.40232 15.2499L16.1591 7.64971C16.7373 7.11274 17.5634 7.85624 17.1504 8.51712L11.3263 16.8608L17.6874 19.5043Z" fill="white"/>
</svg>
