<svg width="23" height="23" viewBox="0 0 23 23" fill="none" xmlns="http://www.w3.org/2000/svg">
<path d="M19.2324 3.65176C21.3141 5.73355 22.6029 8.4597 22.6029 11.4337C22.6029 17.4808 17.5471 22.4374 11.4504 22.4374C9.61648 22.4374 7.83209 21.9418 6.1964 21.0991L0.397129 22.5861L1.93369 16.886C0.991926 15.2503 0.446695 13.3668 0.446695 11.3841C0.446695 5.33702 5.40333 0.380383 11.4504 0.380383C14.4244 0.380383 17.2001 1.56998 19.2324 3.65176ZM11.4504 20.5539C16.5062 20.5539 20.7193 16.4399 20.7193 11.4337C20.7193 8.95537 19.6785 6.67531 17.9436 4.94049C16.2088 3.20567 13.9288 2.26391 11.5 2.26391C6.44423 2.26391 2.33022 6.37792 2.33022 11.3841C2.33022 13.1189 2.82588 14.8042 3.71808 16.2912L3.96591 16.6382L3.02415 20.0087L6.49379 19.0669L6.79119 19.2652C8.22862 20.1078 9.81474 20.5539 11.4504 20.5539ZM16.5062 13.7137C16.754 13.8624 16.9523 13.912 17.0019 14.0607C17.101 14.1598 17.101 14.7051 16.8532 15.3494C16.6053 15.9938 15.5149 16.5886 15.0192 16.6382C14.127 16.7869 13.4331 16.7373 11.6983 15.9442C8.92255 14.7546 7.13816 11.9789 6.98946 11.8302C6.84076 11.632 5.899 10.3432 5.899 8.95537C5.899 7.61708 6.59293 6.97271 6.84076 6.67531C7.08859 6.37792 7.38599 6.32835 7.58426 6.32835C7.73295 6.32835 7.93122 6.32835 8.07992 6.32835C8.27818 6.32835 8.47645 6.27878 8.72428 6.82401C8.92255 7.36924 9.51734 8.70754 9.56691 8.85623C9.61648 9.00493 9.66604 9.15363 9.56691 9.3519C9.07125 10.3928 8.47645 10.3432 8.77385 10.8389C9.86431 12.6728 10.9052 13.3172 12.5409 14.1103C12.7887 14.259 12.9374 14.2094 13.1357 14.0607C13.2844 13.8624 13.8296 13.2181 13.9783 12.9702C14.1766 12.6728 14.3749 12.7224 14.6227 12.8215C14.8705 12.9207 16.2088 13.565 16.5062 13.7137Z" fill="white"/>
</svg>
